<svg width="65" height="59" viewBox="0 0 65 59" fill="none" xmlns="http://www.w3.org/2000/svg">
<path fill-rule="evenodd" clip-rule="evenodd" d="M9.55927 17.78C7.94844 17.78 6.6426 19.0859 6.6426 20.6967V49.8634C6.6426 51.4742 7.94844 52.78 9.55927 52.78H56.2259C57.8368 52.78 59.1426 51.4742 59.1426 49.8634V20.6967C59.1426 19.0859 57.8368 17.78 56.2259 17.78H9.55927ZM0.809265 20.6967C0.809265 15.8642 4.72677 11.9467 9.55927 11.9467H56.2259C61.0584 11.9467 64.9759 15.8642 64.9759 20.6967V49.8634C64.9759 54.6959 61.0584 58.6134 56.2259 58.6134H9.55927C4.72677 58.6134 0.809265 54.6959 0.809265 49.8634V20.6967Z" fill="#3E4095"/>
<path fill-rule="evenodd" clip-rule="evenodd" d="M20.8721 2.84284C22.513 1.2019 24.7386 0.280029 27.0593 0.280029H38.7259C41.0466 0.280029 43.2722 1.2019 44.9131 2.84284C46.5541 4.48379 47.4759 6.70938 47.4759 9.03003V55.6967C47.4759 57.3075 46.1701 58.6134 44.5593 58.6134C42.9484 58.6134 41.6426 57.3075 41.6426 55.6967V9.03003C41.6426 8.25648 41.3353 7.51462 40.7883 6.96763C40.2413 6.42065 39.4995 6.11336 38.7259 6.11336H27.0593C26.2857 6.11336 25.5439 6.42065 24.9969 6.96763C24.4499 7.51462 24.1426 8.25648 24.1426 9.03003V55.6967C24.1426 57.3075 22.8368 58.6134 21.2259 58.6134C19.6151 58.6134 18.3093 57.3075 18.3093 55.6967V9.03003C18.3093 6.70938 19.2311 4.48379 20.8721 2.84284Z" fill="#3E4095"/>
</svg>
