<svg width="71" height="71" viewBox="0 0 71 71" fill="none" xmlns="http://www.w3.org/2000/svg">
<path d="M28.8926 60.2799H42.8926C48.8739 60.2799 53.451 59.0929 56.4949 56.0489C59.5388 53.005 60.7259 48.4279 60.7259 42.4466V28.4466C60.7259 22.4653 59.5388 17.8882 56.4949 14.8443C53.451 11.8004 48.8739 10.6133 42.8926 10.6133H28.8926C22.9113 10.6133 18.3342 11.8004 15.2903 14.8443C12.2463 17.8882 11.0592 22.4653 11.0592 28.4466V42.4466C11.0592 48.4279 12.2463 53.005 15.2903 56.0489C18.3342 59.0929 22.9113 60.2799 28.8926 60.2799Z" stroke="#3E4095" stroke-width="3" stroke-linecap="round" stroke-linejoin="round"/>
<path d="M22.7551 12.1134C22.7551 12.9418 23.4266 13.6134 24.2551 13.6134C25.0835 13.6134 25.7551 12.9418 25.7551 12.1134V6.28003C25.7551 5.4516 25.0835 4.78003 24.2551 4.78003C23.4266 4.78003 22.7551 5.4516 22.7551 6.28003V12.1134ZM34.3926 12.1134C34.3926 12.9418 35.0641 13.6134 35.8926 13.6134C36.721 13.6134 37.3926 12.9418 37.3926 12.1134V6.28003C37.3926 5.4516 36.721 4.78003 35.8926 4.78003C35.0641 4.78003 34.3926 5.4516 34.3926 6.28003V12.1134ZM46.0592 12.1134C46.0592 12.9418 46.7308 13.6134 47.5592 13.6134C48.3877 13.6134 49.0592 12.9418 49.0592 12.1134V6.28003C49.0592 5.4516 48.3877 4.78003 47.5592 4.78003C46.7308 4.78003 46.0592 5.4516 46.0592 6.28003V12.1134ZM59.2259 22.28C58.3975 22.28 57.7259 22.9516 57.7259 23.78C57.7259 24.6085 58.3975 25.28 59.2259 25.28H65.0592C65.8877 25.28 66.5592 24.6085 66.5592 23.78C66.5592 22.9516 65.8877 22.28 65.0592 22.28H59.2259ZM59.2259 33.9467C58.3975 33.9467 57.7259 34.6183 57.7259 35.4467C57.7259 36.2751 58.3975 36.9467 59.2259 36.9467H65.0592C65.8877 36.9467 66.5592 36.2751 66.5592 35.4467C66.5592 34.6183 65.8877 33.9467 65.0592 33.9467H59.2259ZM59.2259 45.6134C58.3975 45.6134 57.7259 46.2849 57.7259 47.1134C57.7259 47.9418 58.3975 48.6134 59.2259 48.6134H65.0592C65.8877 48.6134 66.5592 47.9418 66.5592 47.1134C66.5592 46.2849 65.8877 45.6134 65.0592 45.6134H59.2259ZM49.0592 58.78C49.0592 57.9516 48.3877 57.28 47.5592 57.28C46.7308 57.28 46.0592 57.9516 46.0592 58.78V64.6134C46.0592 65.4418 46.7308 66.1134 47.5592 66.1134C48.3877 66.1134 49.0592 65.4418 49.0592 64.6134V58.78ZM37.4217 58.78C37.4217 57.9516 36.7502 57.28 35.9217 57.28C35.0933 57.28 34.4217 57.9516 34.4217 58.78V64.6134C34.4217 65.4418 35.0933 66.1134 35.9217 66.1134C36.7502 66.1134 37.4217 65.4418 37.4217 64.6134V58.78ZM25.7551 58.78C25.7551 57.9516 25.0835 57.28 24.2551 57.28C23.4266 57.28 22.7551 57.9516 22.7551 58.78V64.6134C22.7551 65.4418 23.4266 66.1134 24.2551 66.1134C25.0835 66.1134 25.7551 65.4418 25.7551 64.6134V58.78ZM6.72591 22.28C5.89748 22.28 5.22591 22.9516 5.22591 23.78C5.22591 24.6085 5.89748 25.28 6.72591 25.28H12.5592C13.3877 25.28 14.0592 24.6085 14.0592 23.78C14.0592 22.9516 13.3877 22.28 12.5592 22.28H6.72591ZM6.72591 33.9467C5.89748 33.9467 5.22591 34.6183 5.22591 35.4467C5.22591 36.2751 5.89748 36.9467 6.72591 36.9467H12.5592C13.3877 36.9467 14.0592 36.2751 14.0592 35.4467C14.0592 34.6183 13.3877 33.9467 12.5592 33.9467H6.72591ZM6.72591 45.6134C5.89748 45.6134 5.22591 46.2849 5.22591 47.1134C5.22591 47.9418 5.89748 48.6134 6.72591 48.6134H12.5592C13.3877 48.6134 14.0592 47.9418 14.0592 47.1134C14.0592 46.2849 13.3877 45.6134 12.5592 45.6134H6.72591ZM31.5176 51.53H40.2676C44.0614 51.53 47.1072 50.7805 49.1668 48.7209C51.2263 46.6613 51.9759 43.6155 51.9759 39.8217V31.0717C51.9759 27.2779 51.2263 24.2321 49.1668 22.1725C47.1072 20.1129 44.0614 19.3634 40.2676 19.3634H31.5176C27.7238 19.3634 24.6779 20.1129 22.6184 22.1725C20.5588 24.2321 19.8092 27.2779 19.8092 31.0717V39.8217C19.8092 43.6155 20.5588 46.6613 22.6184 48.7209C24.6779 50.7805 27.7238 51.53 31.5176 51.53Z" stroke="#3E4095" stroke-width="3" stroke-linecap="round" stroke-linejoin="round"/>
</svg>
