<svg width="71" height="71" viewBox="0 0 71 71" fill="none" xmlns="http://www.w3.org/2000/svg">
<path fill-rule="evenodd" clip-rule="evenodd" d="M13.9139 45.5514C16.6488 42.8165 20.3582 41.28 24.2259 41.28H47.5592C51.427 41.28 55.1363 42.8165 57.8712 45.5514C60.6061 48.2863 62.1426 51.9956 62.1426 55.8634V61.6967C62.1426 63.3075 60.8367 64.6134 59.2259 64.6134C57.6151 64.6134 56.3092 63.3075 56.3092 61.6967V55.8634C56.3092 53.5427 55.3874 51.3171 53.7464 49.6762C52.1055 48.0352 49.8799 47.1134 47.5592 47.1134H24.2259C21.9053 47.1134 19.6797 48.0352 18.0387 49.6762C16.3978 51.3171 15.4759 53.5427 15.4759 55.8634V61.6967C15.4759 63.3075 14.1701 64.6134 12.5592 64.6134C10.9484 64.6134 9.64258 63.3075 9.64258 61.6967V55.8634C9.64258 51.9956 11.179 48.2863 13.9139 45.5514Z" fill="#3E4095"/>
<path fill-rule="evenodd" clip-rule="evenodd" d="M35.8926 12.1134C31.0601 12.1134 27.1426 16.0309 27.1426 20.8634C27.1426 25.6959 31.0601 29.6134 35.8926 29.6134C40.7251 29.6134 44.6426 25.6959 44.6426 20.8634C44.6426 16.0309 40.7251 12.1134 35.8926 12.1134ZM21.3093 20.8634C21.3093 12.8092 27.8384 6.28003 35.8926 6.28003C43.9468 6.28003 50.4759 12.8092 50.4759 20.8634C50.4759 28.9175 43.9468 35.4467 35.8926 35.4467C27.8384 35.4467 21.3093 28.9175 21.3093 20.8634Z" fill="#3E4095"/>
</svg>
