<svg width="25" height="25" viewBox="0 0 25 25" fill="none" xmlns="http://www.w3.org/2000/svg">
<path d="M10.4926 20.4467H15.2926C19.2926 20.4467 20.8926 18.8467 20.8926 14.8467V10.0467C20.8926 6.04666 19.2926 4.44666 15.2926 4.44666H10.4926C6.49258 4.44666 4.89258 6.04666 4.89258 10.0467V14.8467C4.89258 18.8467 6.49258 20.4467 10.4926 20.4467Z" stroke="#3E4095" stroke-width="1.5" stroke-linecap="round" stroke-linejoin="round"/>
<path d="M8.90258 4.44666V2.44666M12.8926 4.44666V2.44666M16.8926 4.44666V2.44666M20.8926 8.44666H22.8926M20.8926 12.4467H22.8926M20.8926 16.4467H22.8926M16.8926 20.4467V22.4467M12.9026 20.4467V22.4467M8.90258 20.4467V22.4467M2.89258 8.44666H4.89258M2.89258 12.4467H4.89258M2.89258 16.4467H4.89258M11.3926 17.4467H14.3926C16.8926 17.4467 17.8926 16.4467 17.8926 13.9467V10.9467C17.8926 8.44666 16.8926 7.44666 14.3926 7.44666H11.3926C8.89258 7.44666 7.89258 8.44666 7.89258 10.9467V13.9467C7.89258 16.4467 8.89258 17.4467 11.3926 17.4467Z" stroke="#3E4095" stroke-width="1.5" stroke-linecap="round" stroke-linejoin="round"/>
</svg>
