<svg width="163" height="123" viewBox="0 0 163 123" fill="none" xmlns="http://www.w3.org/2000/svg">
<path d="M116.873 42.1985C132.555 49.4153 143.551 56.6454 150.796 63.631C158.123 70.6953 161.591 77.4851 162.232 83.7429C163.511 96.2343 153.523 106.978 139.324 113.859C125.157 120.725 107.02 123.622 92.458 120.531C85.1821 118.987 78.8306 115.955 74.3017 111.213C69.7814 106.479 67.0417 100.005 67.0417 91.4967V90.9967H66.5417C59.6687 90.9967 50.0897 90.2495 40.3457 88.5355C30.5963 86.8205 20.7183 84.1439 13.227 80.3018C5.70984 76.4464 0.754997 71.5044 0.509607 65.3206C0.263184 59.1108 4.74609 51.3738 16.8501 41.8902L17.0417 41.7401V41.4967C17.0417 34.6608 18.4267 29.3015 20.9017 25.1007C23.3753 20.9023 26.9578 17.8265 31.4109 15.5881C40.3438 11.0978 52.7365 9.99666 66.5417 9.99666H67.0417V9.49666C67.0417 6.75909 67.186 4.70736 67.4523 3.24392C67.7247 1.7473 68.106 0.982572 68.4768 0.673933C68.6399 0.538146 68.8021 0.489501 68.9854 0.501835C69.1855 0.515302 69.4449 0.60493 69.7704 0.81546C70.4274 1.2403 71.2174 2.06676 72.1276 3.26748C73.9386 5.65639 76.0984 9.35244 78.4962 13.7104C79.6463 15.8006 80.8475 18.0362 82.0879 20.3448L82.2392 20.6264C83.5328 23.0339 84.8679 25.5165 86.2287 27.9878C88.9494 32.9289 91.7782 37.8351 94.5936 42.0218C97.4029 46.1995 100.224 49.7005 102.939 51.7985C105.652 53.8954 108.406 54.689 110.928 53.0951C112.154 52.3202 113.269 51.0091 114.278 49.1302C115.226 47.3652 116.093 45.0746 116.873 42.1985Z" stroke="#01B6AC"/>
</svg>
