<svg width="96" height="95" viewBox="0 0 96 95" fill="none" xmlns="http://www.w3.org/2000/svg">
<rect y="-1.5" width="96" height="96" rx="20" fill="#FCF6FC"/>
<path d="M48 34.8333C52.9507 34.8333 57.6987 36.8 61.1993 40.3006C64.7 43.8013 66.6667 48.5493 66.6667 53.5C66.6667 58.4507 64.7 63.1986 61.1993 66.6993C57.6987 70.2 52.9507 72.1666 48 72.1666C43.0493 72.1666 38.3014 70.2 34.8007 66.6993C31.3 63.1986 29.3333 58.4507 29.3333 53.5C29.3333 48.5493 31.3 43.8013 34.8007 40.3006C38.3014 36.8 43.0493 34.8333 48 34.8333ZM48 43L44.9153 49.2533L38.0133 50.2566L43.0067 55.1216L41.8283 61.9956L48 58.75L54.1717 61.9933L52.9933 55.1216L57.9867 50.2543L51.0847 49.251L48 43ZM50.3333 23.1643L62 23.1666V30.1666L58.8197 32.822C56.1804 31.4381 53.299 30.5762 50.3333 30.2833V23.1643ZM45.6667 23.1643V30.281C42.7018 30.5741 39.8213 31.4361 37.1827 32.8196L34 30.1666V23.1666L45.6667 23.1643Z" fill="#F49A1C"/>
</svg>
