<svg width="21" height="21" viewBox="0 0 21 21" fill="none" xmlns="http://www.w3.org/2000/svg">
<path fill-rule="evenodd" clip-rule="evenodd" d="M4.61297 13.3337C5.39437 12.5523 6.45418 12.1133 7.55924 12.1133H14.2259C15.331 12.1133 16.3908 12.5523 17.1722 13.3337C17.9536 14.1151 18.3926 15.1749 18.3926 16.28V17.9467C18.3926 18.4069 18.0195 18.78 17.5592 18.78C17.099 18.78 16.7259 18.4069 16.7259 17.9467V16.28C16.7259 15.617 16.4625 14.9811 15.9937 14.5122C15.5248 14.0434 14.889 13.78 14.2259 13.78H7.55924C6.8962 13.78 6.26032 14.0434 5.79148 14.5122C5.32264 14.9811 5.05924 15.617 5.05924 16.28V17.9467C5.05924 18.4069 4.68615 18.78 4.22591 18.78C3.76567 18.78 3.39258 18.4069 3.39258 17.9467V16.28C3.39258 15.1749 3.83156 14.1151 4.61297 13.3337Z" fill="#3E4095"/>
<path fill-rule="evenodd" clip-rule="evenodd" d="M10.8925 3.77999C9.51178 3.77999 8.3925 4.89928 8.3925 6.27999C8.3925 7.66071 9.51178 8.77999 10.8925 8.77999C12.2732 8.77999 13.3925 7.66071 13.3925 6.27999C13.3925 4.89928 12.2732 3.77999 10.8925 3.77999ZM6.72583 6.27999C6.72583 3.97881 8.59131 2.11333 10.8925 2.11333C13.1937 2.11333 15.0592 3.97881 15.0592 6.27999C15.0592 8.58118 13.1937 10.4467 10.8925 10.4467C8.59131 10.4467 6.72583 8.58118 6.72583 6.27999Z" fill="#3E4095"/>
</svg>
