<svg width="20" height="17" viewBox="0 0 20 17" fill="none" xmlns="http://www.w3.org/2000/svg">
<path fill-rule="evenodd" clip-rule="evenodd" d="M3.22583 5.11333C2.76559 5.11333 2.3925 5.48642 2.3925 5.94666V14.28C2.3925 14.7402 2.76559 15.1133 3.22583 15.1133H16.5592C17.0194 15.1133 17.3925 14.7402 17.3925 14.28V5.94666C17.3925 5.48642 17.0194 5.11333 16.5592 5.11333H3.22583ZM0.72583 5.94666C0.72583 4.56595 1.84512 3.44666 3.22583 3.44666H16.5592C17.9399 3.44666 19.0592 4.56595 19.0592 5.94666V14.28C19.0592 15.6607 17.9399 16.78 16.5592 16.78H3.22583C1.84512 16.78 0.72583 15.6607 0.72583 14.28V5.94666Z" fill="white"/>
<path fill-rule="evenodd" clip-rule="evenodd" d="M6.45806 0.84556C6.9269 0.376719 7.56279 0.113327 8.22583 0.113327H11.5592C12.2222 0.113327 12.8581 0.376719 13.3269 0.84556C13.7958 1.3144 14.0592 1.95029 14.0592 2.61333V15.9467C14.0592 16.4069 13.6861 16.78 13.2258 16.78C12.7656 16.78 12.3925 16.4069 12.3925 15.9467V2.61333C12.3925 2.39231 12.3047 2.18035 12.1484 2.02407C11.9921 1.86779 11.7802 1.77999 11.5592 1.77999H8.22583C8.00482 1.77999 7.79285 1.86779 7.63657 2.02407C7.48029 2.18035 7.3925 2.39231 7.3925 2.61333V15.9467C7.3925 16.4069 7.0194 16.78 6.55916 16.78C6.09893 16.78 5.72583 16.4069 5.72583 15.9467V2.61333C5.72583 1.95029 5.98922 1.3144 6.45806 0.84556Z" fill="white"/>
</svg>
